{"title":"Toute une vie - Claude Lelouch (1974) DVDRip XviD","uid":8628057,"size":1468729390,"categoryP":"video","categoryS":"movies","magnet":"?xt=urn:btih:7fe69866e804e3507f8edec8696e3d4631bc67b3&amp;dn=Toute+une+vie+-+Claude+Lelouch+%281974%29+DVDRip+XviD&amp;tr=udp%3A%2F%2Ftracker.openbittorrent.com%3A80&amp;tr=udp%3A%2F%2Fopen.demonii.com%3A1337&amp;tr=udp%3A%2F%2Ftracker.coppersurfer.tk%3A6969&amp;tr=udp%3A%2F%2Fexodus.desync.com%3A6969","seeders":1,"leechers":0,"uploader":null,"files":2,"time":1372561090,"description":"The movie follows the lives of a woman and a man starting from several generations earlier. The story spans a whole century and several continents.\n &lt;a href=&quot;\nhttp://www.imdb.com/title/tt0072307/&quot; rel=&quot;nofollow&quot; target=&quot;_NEW&quot;&gt;\nhttp://www.imdb.com/title/tt0072307/&lt;/a&gt;\n\nGeneral\nComplete name                            : Toute.Une.Vie.1974.XviD.DVDRip.MKO.avi\nFormat                                   : AVI\nFormat/Info                              : Audio Video Interleave\nFile size                                : 1.37 GiB\nDuration                                 : 2h 22mn\nOverall bit rate                         : 1 377 Kbps\nWriting application                      : VirtualDubMod 1.5.4.1 (build 2178/release)\nWriting library                          : VirtualDubMod build 2178/release\n\nVideo\nID                                       : 0\nFormat                                   : MPEG-4 Visual\nFormat profile                           : Advanced Simple@L5\nFormat settings, BVOP                    : 1\nFormat settings, QPel                    : No\nFormat settings, GMC                     : No warppoints\nFormat settings, Matrix                  : Custom\nCodec ID                                 : XVID\nCodec ID/Hint                            : XviD\nDuration                                 : 2h 22mn\nBit rate                                 : 1 179 Kbps\nWidth                                    : 688 pixels\nHeight                                   : 432 pixels\nDisplay aspect ratio                     : 1.593\nFrame rate                               : 23.976 fps\nColor space                              : YUV\nChroma subsampling                       : 4:2:0\nBit depth                                : 8 bits\nScan type                                : Progressive\nCompression mode                         : Lossy\nBits/(Pixel*Frame)                       : 0.165\nStream size                              : 1.17 GiB (86%)\nWriting library                          : XviD 1.2.1 (UTC 2008-12-04)\n\nAudio\nID                                       : 1\nFormat                                   : AC-3\nFormat/Info                              : Audio Coding 3\nMode extension                           : CM (complete main)\nCodec ID                                 : 2000\nDuration                                 : 2h 22mn\nBit rate mode                            : Constant\nBit rate                                 : 192 Kbps\nChannel(s)                               : 2 channels\nChannel positions                        : Front: L R\nSampling rate                            : 48.0 KHz\nBit depth                                : 16 bits\nCompression mode                         : Lossy\nStream size                              : 195 MiB (14%)\nAlignment                                : Split accross interleaves\nInterleave, duration                     : 96 ms (2.30 video frames)\nInterleave, preload duration             : 96 ms","torrent":{"xt":"urn:btih:7fe69866e804e3507f8edec8696e3d4631bc67b3","amp;dn":"Toute+une+vie+-+Claude+Lelouch+%281974%29+DVDRip+XviD","amp;tr":["udp%3A%2F%2Ftracker.openbittorrent.com%3A80","udp%3A%2F%2Fopen.demonii.com%3A1337","udp%3A%2F%2Ftracker.coppersurfer.tk%3A6969","udp%3A%2F%2Fexodus.desync.com%3A6969"],"infoHash":"7fe69866e804e3507f8edec8696e3d4631bc67b3","infoHashBuffer":{"type":"Buffer","data":[127,230,152,102,232,4,227,80,127,142,222,200,105,110,61,70,49,188,103,179]},"announce":[],"urlList":[]}}